<?xml version="1.0" encoding="UTF-8" standalone="no"?>
<!DOCTYPE svg PUBLIC "-//W3C//DTD SVG 1.1//EN" "http://www.w3.org/Graphics/SVG/1.1/DTD/svg11.dtd">
<svg width="100%" height="100%" viewBox="0 0 705 546" version="1.1" xmlns="http://www.w3.org/2000/svg" xmlns:xlink="http://www.w3.org/1999/xlink" xml:space="preserve" xmlns:serif="http://www.serif.com/" style="fill-rule:evenodd;clip-rule:evenodd;stroke-linecap:round;stroke-linejoin:round;stroke-miterlimit:1.5;">
    <g transform="matrix(1,0,0,1,-55.9034,-131.756)">
        <g transform="matrix(1.67895,0,0,1.67895,-615.963,-193.888)">
            <g transform="matrix(6.12323e-17,1,-1,6.12323e-17,966.238,-253.529)">
                <path d="M692.876,259.479C692.876,259.479 709.057,220.871 709.057,218.897C709.057,216.923 653.942,147.605 647.096,150.925C599.462,174.028 600.5,232.587 546.038,262.666" style="fill:none;stroke:rgb(13,13,13);stroke-width:8.34px;"/>
            </g>
            <g transform="matrix(0.866025,-0.5,0.5,0.866025,-22.8411,560.127)">
                <path d="M692.876,259.479C692.876,259.479 709.057,220.871 709.057,218.897C709.057,216.923 653.942,147.605 647.096,150.925C599.462,174.028 600.5,232.587 546.038,262.666" style="fill:none;stroke:rgb(13,13,13);stroke-width:8.34px;"/>
            </g>
            <g transform="matrix(-0.866025,-0.5,0.5,-0.866025,780.955,789.697)">
                <path d="M545.023,263.02C559.095,268.918 588.665,266.998 588.863,267.166C598.516,275.334 576.515,351.144 574.927,351.144C558.742,351.144 521.955,337.393 520.35,335.788C519.256,334.694 520.562,289.426 512.848,276.066C503.942,260.64 496.99,249.535 494.966,249.493C463.811,248.854 462.265,254.312 463.099,256.88C466.175,266.352 486.656,274.344 481.493,332.126C477.243,379.683 469.019,394.06 468.913,394.261" style="fill:none;stroke:rgb(13,13,13);stroke-width:8.34px;"/>
            </g>
            <g transform="matrix(6.12323e-17,1,-1,6.12323e-17,965.753,-251.867)">
                <path d="M545.023,263.02C559.095,268.918 588.665,266.998 588.863,267.166C598.516,275.334 576.515,351.144 574.927,351.144C558.742,351.144 521.955,337.393 520.35,335.788C519.256,334.694 520.562,289.426 512.848,276.066C503.942,260.64 496.99,249.535 494.966,249.493C463.811,248.854 462.265,254.312 463.099,256.88C466.175,266.352 486.656,274.344 481.493,332.126C477.243,379.683 469.642,392.828 468.913,394.261" style="fill:none;stroke:rgb(13,13,13);stroke-width:8.34px;"/>
            </g>
            <g transform="matrix(-0.866025,-0.5,0.5,-0.866025,786.282,1242.93)">
                <path d="M542.149,528.152C557.209,522.606 599.251,554.617 606.812,547.057C634.44,519.429 631.959,500.639 650.819,481.78C655.533,477.066 704.098,504.043 704.098,504.043C704.098,504.043 696.482,522.014 696.374,522.19" style="fill:none;stroke:rgb(13,13,13);stroke-width:8.34px;"/>
            </g>
            <g transform="matrix(6.12323e-17,1,-1,6.12323e-17,968.499,-253.056)">
                <path d="M542.149,528.152C557.209,522.606 599.251,554.617 606.812,547.057C634.44,519.429 631.959,500.639 650.819,481.78C655.533,477.066 704.098,504.043 704.098,504.043C704.098,504.043 696.386,522.24 696.278,522.416" style="fill:none;stroke:rgb(13,13,13);stroke-width:8.34px;"/>
            </g>
        </g>
    </g>
</svg>
