<?xml version="1.0" encoding="UTF-8" standalone="no"?>
<!DOCTYPE svg PUBLIC "-//W3C//DTD SVG 1.1//EN" "http://www.w3.org/Graphics/SVG/1.1/DTD/svg11.dtd">
<svg width="100%" height="100%" viewBox="0 0 800 800" version="1.1" xmlns="http://www.w3.org/2000/svg" xmlns:xlink="http://www.w3.org/1999/xlink" xml:space="preserve" xmlns:serif="http://www.serif.com/" style="fill-rule:evenodd;clip-rule:evenodd;stroke-linejoin:round;stroke-miterlimit:2;">
    <path d="M377.997,106.133L386.482,108.357L387.208,108.633C418.937,117.797 451.812,123.978 484.7,125.878C488.493,126.097 492.29,126.238 496.089,126.249L496.211,126.249C509.089,120.345 521.412,113.183 533.797,106.182C533.797,106.182 536.056,104.916 537.748,104.06C562.307,91.641 593.538,91.958 617.825,105.823C636.726,116.612 650.792,134.894 657.656,155.934C664.275,176.227 665.607,197.995 667.201,219.354C668.82,241.037 661.974,263.829 647.54,281.041C647.214,281.43 646.881,281.812 646.552,282.198C667.953,319.974 689.231,357.656 711.111,395.075L711.67,396.03C724.168,402.794 736.757,409.457 749.444,415.644L749.807,415.819C752.44,417.277 755.158,418.592 757.707,420.192C778.129,433.015 792.329,455.207 795.423,479.108C797.744,497.033 793.932,515.675 784.759,531.25C779.31,540.503 772.376,548.755 766.129,557.502C751.25,578.337 736.615,599.36 723.056,621.108L717.861,628.499C712.559,634.508 711.446,636.271 705.199,641.35C684.155,658.458 654.498,664.139 628.501,655.828C625.633,654.91 622.874,653.68 620.061,652.607C593.541,640.774 567.022,628.936 540.504,617.099C540.504,617.099 531.205,612.873 531.205,612.873L525.095,609.936L517.623,605.302C515.313,603.499 512.902,601.818 510.692,599.894C504.98,594.923 504.153,593.503 499.51,587.92C478.544,626.6 455.416,663.675 430.674,699.804L429.945,700.867L429.233,701.902L423.858,708.885C421.826,711.007 419.906,713.241 417.764,715.251C400.6,731.352 376.315,739.485 352.928,736.98C345.121,736.144 343.27,735.309 335.731,733.239L335.723,733.236C332.938,732.135 330.089,731.185 327.369,729.933C320.097,726.586 318.587,725.166 311.991,720.695C311.991,720.695 308.631,718.125 305.761,715.707C294.396,706.135 284.382,695.072 274.845,683.565L274.436,683.069C250.189,693.232 226.463,704.646 201.069,711.678C195.716,713.161 189.434,714.516 183.251,714.993C154.568,717.208 126.001,703.363 107.365,680.719C88.504,657.802 76.353,629.776 64.232,602.744C62.234,598.288 60.267,593.819 58.345,589.329L58.221,589.04C55.326,581.151 52.846,573.119 52.04,564.795C49.627,539.848 59.281,514.059 77.867,496.803C81.52,493.413 84.349,491.379 88.121,488.535C91.72,485.822 95.319,483.109 98.919,480.398C100.376,479.302 101.833,478.206 103.29,477.11C103.29,477.11 98.522,472.786 94.666,469.298C84.465,460.07 73.988,450.888 66.454,439.776C53.831,421.158 48.905,397.908 51.581,375.091C53.219,361.132 57.488,347.624 62.389,334.43L62.564,333.964C61.48,333.431 60.456,332.915 60.456,332.915C57.62,331.468 54.818,329.948 52.153,328.208C48.752,325.988 46.743,324.539 43.488,321.841C42.594,321.1 41.759,320.288 40.929,319.475C35.868,314.516 35.939,314.444 31.402,309L31.397,308.995C27.27,302.982 25.989,301.599 22.797,295.01C21.603,292.545 20.659,289.965 19.589,287.443L19.589,287.441C17.434,280.496 16.623,278.801 15.526,271.586C14.429,264.37 14.7,262.511 14.693,255.239L14.693,255.237C14.942,252.666 15.069,250.08 15.439,247.523C16.427,240.692 17.155,239.077 19.092,232.476C19.092,232.476 21.305,226.146 23.502,220.777C40.546,179.135 67.858,141.93 98.282,108.777C101.09,105.716 103.419,103.013 107.599,99.343C127.913,81.506 158.166,74.521 185.521,81.59C201.041,85.601 215.794,92.244 230.353,98.767C251.834,108.391 270.757,126.694 285.288,146.252L285.459,146.484C291.675,140.005 297.99,133.695 304.447,127.535L304.964,127.044C310.882,121.989 312.196,120.455 318.874,116.393C328.881,110.307 340.174,106.409 351.804,105.027C359.566,104.104 361.547,104.501 369.322,104.829C372.214,105.264 375.105,105.699 377.997,106.133ZM578.22,137.336C595.27,138.349 610.504,150.2 616.66,167.387C622.901,184.809 623.446,204.139 624.82,222.524C625.15,226.938 624.716,235.739 621.789,242.669C616.083,256.18 603.01,265.085 589.708,273.405C589.708,273.405 591.342,274.795 591.342,274.795L595.54,279.313C602.832,290.147 608.836,301.849 615.316,313.28C636.996,351.501 658.385,389.959 680.969,427.601C697.383,436.994 713.958,445.623 730.878,453.874C730.878,453.874 734.162,455.51 736.321,456.979C752.208,467.788 758.422,490.712 748.851,508.419C747.061,511.732 744.703,514.664 742.504,517.651C723.104,544.07 704.286,570.884 686.992,598.621L683.664,603.194C680.167,606.782 679.445,607.908 675.232,610.689C667.351,615.891 657.598,618.127 648.232,616.873C643.228,616.203 642.087,615.503 637.378,613.795C610.86,601.963 584.345,590.127 557.829,578.29C557.829,578.29 548.517,574.068 548.517,574.068L544.153,571.88L539.197,568.35C537.745,566.934 536.18,565.625 534.842,564.1C530.811,559.51 527.88,553.986 526.331,548.115C525.814,546.153 525.601,544.124 525.237,542.129L521.554,506.759L518.642,478.804C509.169,478.154 499.734,477.406 490.291,476.601L489.389,476.523C489.694,487.04 490.328,497.679 488.981,507.907L488.784,509.313C488.549,510.49 488.498,510.809 488.261,511.823C486.391,519.83 482.541,527.33 478.942,534.879C455.023,585.049 425.631,632.123 394.211,677.824L390.68,682.245C387.025,685.674 386.253,686.768 381.917,689.358C375.423,693.237 367.837,695.187 360.278,694.922C355.231,694.746 354.027,694.16 349.171,692.92L349.162,692.917C345.592,691.505 344.618,691.29 341.312,689.304C337.734,687.154 334.525,684.441 331.365,681.678C315.281,667.618 302.698,649.977 289.102,633.557L288.355,632.66C287.57,632.912 286.786,633.166 286.002,633.422C253.288,644.156 222.994,661.507 189.726,670.72C178.568,673.81 164.974,672.997 153.826,666.03C139.77,657.246 131.206,641.844 123.349,627.262C113.797,609.534 105.368,591.182 97.43,572.637L97.32,572.38C95.655,567.502 94.948,566.315 94.389,561.147C93.349,551.538 95.991,541.519 101.734,533.638C104.794,529.437 105.999,528.76 109.875,525.361C118.58,518.795 127.144,511.879 136.009,505.742C136.203,505.608 136.402,505.481 136.598,505.351L141.489,502.586C146.759,500.529 152.177,498.864 157.788,498.772C162.802,498.69 164.026,499.206 168.907,500.181L172.897,501.47L173.66,501.805C177.303,496.511 180.873,491.168 184.322,485.731L184.363,485.667C168.431,473.332 151.676,462.051 136.202,449.113C126.189,440.74 116.574,431.897 107.274,422.73C107.274,422.73 102.555,417.842 99.701,412.819C94.859,404.299 92.895,394.322 93.419,384.397C94.753,359.138 108.137,336.596 115.838,313.191C115.838,313.191 115.744,312.795 115.518,312.53C102.175,305.664 87.624,300.593 75.215,292.496C73.144,291.145 71.738,290.187 69.783,288.271C67.344,285.882 67.379,285.847 65.193,283.225L65.189,283.219C61.957,278.248 61.951,278.238 59.501,272.838L59.5,272.836C59.008,271.152 58.404,269.498 58.025,267.785C57.012,263.202 57.224,261.986 57.142,257.324L57.142,257.322C57.859,251.377 57.409,251.633 59.715,245.054C74.017,204.823 100.384,169.345 129.595,137.512C135.462,131.118 142.709,124.446 153.854,122.002C166.209,119.293 179.101,123.582 191.113,128.318C198.967,131.414 206.739,134.71 214.437,138.212C214.437,138.212 218.102,140.06 219.321,140.791C240.17,153.313 254.725,174.621 266.783,195.734C271.087,203.27 275.214,210.94 278.512,218.934C295.286,197.889 313.653,177.544 333.247,158.799L334.258,157.835L338.782,154.129C343.229,151.474 344.248,150.531 349.212,148.908C354.76,147.095 360.731,146.527 366.552,147.28C368.485,147.53 370.371,148.065 372.28,148.458L373.533,148.916C409.028,159.327 445.754,166.255 482.72,168.334C490.2,168.755 497.72,168.985 505.168,168.496C507.585,168.337 513.46,165.196 519.589,162.185C531.614,156.276 543.269,149.625 554.972,143.033C554.972,143.033 561.647,139.505 567.319,138.258C569.389,137.804 571.494,137.507 573.609,137.373C575.145,137.275 576.685,137.28 578.22,137.336ZM297.889,549.889C307.318,550.25 316.517,553.474 324.46,558.637C337.415,567.057 347.087,579.477 356.613,591.384C376.36,560.086 395.462,528.239 410.634,494.402L410.674,494.312C410.786,474.9 409.828,455.359 408.474,436.058C408.474,436.058 408.249,432.394 408.442,429.79C409.085,421.089 412.543,412.999 418.746,406.134C418.746,406.134 413.23,402.653 409.535,398.603C400.763,388.991 398.141,375.307 396.223,362.196C395.048,354.165 394.059,346.118 393.274,338.025C393.274,338.025 393.041,333.937 393.066,332.507C393.485,308.196 404.663,284.927 416.916,263.931C421.291,256.435 425.871,249.025 431.144,242.173C411.788,239.261 392.238,235.378 373.126,230.63L373.109,230.626C348.876,255.883 326.05,283.001 308.913,313.132C307.653,315.348 306.429,317.587 305.307,319.877C304.227,322.08 304.016,328.733 303.562,335.523C302.666,348.894 302.593,362.314 302.455,375.732C302.455,375.732 302.035,383.72 300.423,388.806C295.129,405.507 278.608,417.784 260.156,417.873C243.976,417.95 228.646,410.377 213.331,403.377C208.429,401.136 203.559,398.834 198.69,396.488C196.917,395.633 194.467,394.379 191.863,392.599C213.715,410.186 237.792,425.314 257.851,445.037C266.647,453.686 272.335,465.965 271.718,479.045C270.946,495.409 261.976,510.367 253.406,524.252C242.83,541.388 231.151,557.863 219.058,574.013L218.251,574.969C219.305,574.507 220.361,574.048 221.417,573.591C241.864,564.772 262.878,557.384 284.33,551.471C284.33,551.471 291.454,549.72 297.889,549.889ZM144.62,575.434L145.638,575.715C144.19,575.094 142.954,574.558 141.819,574.04C142.752,574.505 143.686,574.97 144.62,575.434ZM593.72,437.069C595.858,457.571 597.994,478.074 600.129,498.577L601.449,511.248C613.89,516.802 626.331,522.355 638.772,527.908C644.072,520.029 649.437,512.231 654.856,504.456L655.374,503.714C646.104,498.714 636.547,493.922 628.405,487.674L627.118,486.67C619.999,480.276 615.304,471.786 610.389,463.482C604.562,453.639 598.851,443.744 593.149,433.849C593.339,434.922 593.53,435.995 593.72,437.069ZM350.723,326.124C349.248,328.435 347.81,330.769 346.432,333.14L346.372,333.245C345.048,347.334 345.087,361.556 344.957,375.815C344.957,375.815 344.98,376.06 344.907,378.304C344.071,404.029 331.237,429.037 310.128,444.304C309.445,444.798 308.412,445.513 308.412,445.513L308.908,446.797L309.594,448.715C315.978,467.964 315.398,489.064 308.817,508.234C308.817,508.234 312.136,508.72 314.831,509.284C325.767,511.575 336.242,515.912 345.754,521.815C347.207,522.717 347.907,523.189 347.907,523.189C354.943,510.735 361.717,498.123 367.985,485.256L368.07,485.082C367.722,469.756 367.158,454.425 366.083,439.097L366.053,438.692C365.999,435.683 365.779,432.672 365.89,429.664C366.172,422.062 366.715,420.703 368.14,413.757L367.407,412.511C355.386,391.042 353.02,365.188 350.904,341.389C350.506,336.906 350.477,332.39 350.703,327.891C350.768,326.584 350.991,325.705 350.723,326.124ZM177.036,374.746C176.411,376.396 175.578,378.654 175.578,378.654C179.278,382.015 183.046,385.299 186.878,388.508L187.222,388.795L186.352,387.943L185.515,387.072C184.834,386.321 184.666,386.15 184.023,385.382C183.384,384.618 182.774,383.829 182.191,383.021C180.207,380.269 178.582,377.268 177.273,374.125C177.194,374.332 177.115,374.539 177.036,374.746ZM522.82,299.961C510.655,301.512 498.401,302.402 486.152,303.158L485.469,303.199C479.926,312.611 474.239,322.215 472.199,332.982L472.181,333.081C472.425,335.374 472.804,338.599 472.804,338.599C486.742,340.817 500.796,342.372 514.904,342.851C514.904,342.851 514.242,333.737 514.662,327.986C515.078,322.29 515.957,319.986 516.924,316.935C518.738,311.213 520.844,305.579 523.016,299.968C523.016,299.968 522.89,299.952 522.82,299.961ZM173.768,207.3C165.038,218.113 156.798,229.337 149.442,241.134C149.442,241.134 156.599,244.631 161.4,247.69C164.058,249.384 165.064,250.251 166.299,251.313C172.445,256.595 177.376,263.205 182.524,269.602C182.524,269.602 185.506,262.646 187.992,257.235C191.26,250.12 194.704,243.088 198.193,236.079L198.498,235.468C193.108,225.941 187.542,216.145 179.341,209.084L179.266,209.02C177.157,208.085 174.174,206.8 174.174,206.8C174.038,206.967 173.903,207.133 173.768,207.3Z" style="fill:rgb(254,254,254);"/>
    <g transform="matrix(0.936097,0,0,0.936097,38.1371,27.1242)">
        <path d="M562.395,295.627C560.512,297.025 551.242,322.774 551.162,324.287C550.731,332.429 554.595,376.434 554.31,376.49C504.401,386.25 433.863,370.182 428.223,368.608C425.472,367.841 421.343,328.303 421.343,327.585C421.343,300.939 451.363,257.227 454.015,254.586C455.824,252.783 523.202,252.674 540.831,242.653C566.401,228.118 584.997,216.537 584.752,213.213C580.554,156.171 576.428,158.554 572.543,160.746C558.803,168.5 518.566,191.722 504.374,192.927C470.037,195.845 402.849,187.281 345.468,170.318L345.42,170.206C302.039,211.417 261.028,265.322 246.386,296.517C240.335,309.411 240.326,355.868 240.171,371.644C240.128,376.105 240.128,380.869 188.629,355.985C185.628,354.534 184.897,332.639 185.094,303.227C185.229,282.95 218.824,224.544 218.168,222.076C217.206,218.459 194.361,170.605 171.285,157.282C170.663,156.923 134.358,140.73 132.317,142.728C128.134,146.826 78.95,199.88 62.448,247.982C62.354,248.257 102.395,266.913 109.232,271.357C110.502,272.183 128.166,293.086 128.435,295.415L128.75,295.545C124.41,330.321 92.164,381.391 103.598,392.678C150.283,438.764 174.943,446.333 206.608,477.997C214.523,485.912 159.36,559.11 159.36,559.11C159.36,559.11 129.186,546.323 128.891,546.141L128.509,546.036C128.204,546.201 102.043,565.938 102.043,565.938C102.043,565.938 137.853,650.31 148.665,647.413C191.92,635.823 210.804,618.251 274.058,600.863C289.55,596.604 317.655,650.066 345.601,671.212L345.61,671.215C408.646,579.615 438.911,512.775 439.792,508.038C441.131,498.74 438.527,444.74 437.665,433.264C455.966,435.467 511.966,440.992 551.541,442.306C555.424,479.527 562.321,545.792 562.321,545.792L562.33,545.778C562.33,545.778 623.166,572.938 657.342,588.185C678.267,554.57 711.052,508.834 722.11,494.087C711.741,489.095 663.673,464.35 656.29,458.542C652.628,455.41 562.395,295.627 562.395,295.627Z" style="fill:rgb(25,25,25);"/>
    </g>
</svg>
