<?xml version="1.0" encoding="UTF-8" standalone="no"?>
<!DOCTYPE svg PUBLIC "-//W3C//DTD SVG 1.1//EN" "http://www.w3.org/Graphics/SVG/1.1/DTD/svg11.dtd">
<svg width="100%" height="100%" viewBox="0 0 800 800" version="1.1" xmlns="http://www.w3.org/2000/svg" xmlns:xlink="http://www.w3.org/1999/xlink" xml:space="preserve" xmlns:serif="http://www.serif.com/" style="fill-rule:evenodd;clip-rule:evenodd;stroke-linejoin:round;stroke-miterlimit:2;">
    <g transform="matrix(1.21274,0,0,1.21274,-75.7331,-93.4479)">
        <path d="M562.395,295.627C560.512,297.025 551.242,322.774 551.162,324.287C550.731,332.429 554.595,376.434 554.31,376.49C504.401,386.25 433.863,370.182 428.223,368.608C425.472,367.841 421.343,328.303 421.343,327.585C421.343,300.939 451.363,257.227 454.015,254.586C455.824,252.783 523.202,252.674 540.831,242.653C566.401,228.118 584.997,216.537 584.752,213.213C580.554,156.171 576.428,158.554 572.543,160.746C558.803,168.5 518.566,191.722 504.374,192.927C470.037,195.845 402.849,187.281 345.468,170.318L345.42,170.206C302.039,211.417 261.028,265.322 246.386,296.517C240.335,309.411 240.326,355.868 240.171,371.644C240.128,376.105 240.128,380.869 188.629,355.985C185.628,354.534 184.897,332.639 185.094,303.227C185.229,282.95 218.824,224.544 218.168,222.076C217.206,218.459 194.361,170.605 171.285,157.282C170.663,156.923 134.358,140.73 132.317,142.728C128.134,146.826 78.95,199.88 62.448,247.982C62.354,248.257 102.395,266.913 109.232,271.357C110.502,272.183 128.166,293.086 128.435,295.415L128.75,295.545C124.41,330.321 92.164,381.391 103.598,392.678C150.283,438.764 174.943,446.333 206.608,477.997C214.523,485.912 159.36,559.11 159.36,559.11C159.36,559.11 129.186,546.323 128.891,546.141L128.509,546.036C128.204,546.201 102.043,565.938 102.043,565.938C102.043,565.938 137.853,650.31 148.665,647.413C191.92,635.823 210.804,618.251 274.058,600.863C289.55,596.604 317.655,650.066 345.601,671.212L345.61,671.215C408.646,579.615 438.911,512.775 439.792,508.038C441.131,498.74 438.527,444.74 437.665,433.264C455.966,435.467 511.966,440.992 551.541,442.306C555.424,479.527 562.321,545.792 562.321,545.792L562.33,545.778C562.33,545.778 623.166,572.938 657.342,588.185C678.267,554.57 711.052,508.834 722.11,494.087C711.741,489.095 663.673,464.35 656.29,458.542C652.628,455.41 609.877,395.78 562.066,295.39"/>
    </g>
</svg>
