<svg version="1" xmlns="http://www.w3.org/2000/svg" width="933.333" height="933.333" viewBox="0 0 700.000000 700.000000"><path d="M71.5 72.2c-1.9 2.3-13.1 15.3-15 17.4-.5.6-2.1 2.6-3.5 4.4-1.4 1.8-3 3.8-3.5 4.4-7.8 8.2-28.5 39.1-37.3 55.6-4.8 9.1-12.7 27-12 27.4.2.2 11.3 5.7 24.8 12.3 18.5 9 25.3 12.9 27.5 15.5 6.7 7.7 8.1 9.6 12.8 15.7 4.4 5.8 4.8 6.8 4.3 10.5-1.2 9.7-5.5 23-17.4 53.7-9.6 24.9-12.3 35.3-10.8 41.5.8 2.9 7.3 9.7 21.6 22.3 5.2 4.6 10.7 9.4 12.2 10.7 2.3 2.1 36.7 28.1 42.7 32.2 6.6 4.7 22.6 17.9 29 24 7 6.6 7.3 7.1 6.6 10.3-1.6 7.6-10.7 23.9-24.8 44.9-5.6 8.3-23.7 33.9-25.4 35.9-.3.5-7.6-2.3-17.8-6.9-3.3-1.5-8.1-3.5-10.7-4.5l-4.7-1.8-13 9.7c-7.1 5.3-13.4 10.2-13.9 10.9-1.2 1.4 2.2 9.3 16.4 38.6C74.8 588.1 85.7 605 90.7 605c5.2 0 36.6-11.6 56.5-20.9 8.7-4 25.5-11.1 26.5-11.1.4 0 2-.6 3.5-1.4 6.2-3.3 45.5-15.8 49.3-15.8 6.6-.1 16.3 8.9 35 32.2 6.4 8 13.9 17.2 16.8 20.5 5.9 7 20.7 21.5 21.8 21.5 2.3 0 45.1-67.3 62.9-99 2.9-5.2 6-10.6 6.9-12 5.3-8.5 27.3-52.4 29.6-59.1 1.7-4.7 1.1-45.4-1-75.7l-.4-6.3 6.2.7c3.4.3 7.3.7 8.7.9 6.2.8 13.1 1.5 20.5 2 4.4.4 9.1.8 10.5 1 1.4.2 6.1.7 10.5 1 4.4.3 10 .8 12.5 1 2.5.2 9.2.7 15 1 5.8.4 12.5.9 15 1 2.5.2 7.9.5 12.1.6 4.2.1 8.1.4 8.7.8 1.1.7 1.8 4.2 2.7 14.6.4 3.8.8 8.1 1 9.5.2 1.4.7 5.4 1 9 .3 3.6.7 8.1 1 10 .2 1.9.7 6 1 9 .7 6.9 1.3 13.1 2 19.5.3 2.7.8 7.5 1.1 10.5.2 3 .7 6.6.9 8 .2 1.4.7 6.1 1 10.5.4 4.4 1 8.3 1.3 8.7.4.3 13.3 6.2 28.7 13.1 15.4 6.9 30.5 13.6 33.5 15 30.4 13.8 38.3 16.9 39.1 15.5 4.6-8.2 50.2-74.5 63.1-91.7 5.3-7 6-6-9.5-13.9-48.6-24.8-54.3-28.4-61.1-37.6-11.2-15.2-35.9-54.5-47.1-75.1-2.1-3.9-4.9-8.7-6.2-10.7-1.2-2.1-2.3-3.9-2.3-4.1 0-.3-1.9-3.7-4.1-7.8-2.3-4.1-11.1-21-19.5-37.6l-15.2-30.1-2.5 5.6c-4.7 10.4-9.4 24.7-9.2 27.7.2 1.6.6 8.6 1 15.5.9 15.6 1.1 19.6 1.9 29.1l.6 7.6-4.2.7c-10.9 1.8-16.7 2.1-36.8 2.1-23.8-.1-31-.6-54.5-4.1-19.8-2.9-25.1-3.9-35.6-6.5-3.3-.8-3.7-1.3-4.7-6.1-.6-2.9-1.4-6.9-1.7-8.8-.3-1.9-.7-4.6-1-6-1.2-6.6-1.9-15.4-1.9-24.5.1-8.6.5-11.3 3.3-19.5 3.5-10 12.9-29.6 18.8-38.9 9.9-15.7 11.8-18.1 14.3-18.2 1.4 0 3.2-.2 4-.3.8-.2 6.9-.6 13.5-1s14.3-.9 17-1.1c2.8-.3 7.9-.7 11.5-1 13.1-1.1 14.8-1.4 34-5.1 3.1-.6 10.9-4.3 17.5-8.3 2.8-1.7 5.7-3.4 6.5-3.8 2.7-1.3 14.5-8.6 21.5-13.3 10.9-7.4 10.8-7.1 10-18.7-.4-5.4-.8-10.9-1-12.3-.2-1.4-.6-4.5-.9-7-.4-2.5-.8-6.1-1.1-8-1.4-11.1-3.7-18.7-5.9-19.6-.8-.3-7.9 3.1-15.9 7.5-31.9 17.6-49.8 25.6-60.3 26.9-10.1 1.1-38.2.5-52.4-1.3-1.4-.2-5.2-.6-8.5-1-11.9-1.2-12.1-1.3-32-4.5-15.4-2.5-40.5-7.8-56.5-12-11.4-3-12.5-3.3-16.7-4.6-1.8-.5-3.9 1.2-12 9.3-13 13.1-21.6 22.3-28.8 30.8-3.3 3.8-7.2 8.3-8.7 10-20.6 23.3-52.3 69.4-57.8 84.2-3.8 10.2-5.7 29.2-6.2 63.2-.2 17.5-.9 20.7-4.1 19.6-.7-.2-2.3-.6-3.7-.9-3.8-.7-17.5-5.9-27.5-10.5-4.9-2.3-11.6-5.4-14.7-6.9-4.3-1.9-5.9-3.2-6.3-5.1-.3-1.4-.8-3.7-1.1-5.1-.3-1.4-.7-13.5-.9-27-.3-22.1-.2-25.2 1.6-32 2.3-8.5 9.3-25.6 16.7-40.5 13.1-26.7 16.2-33.3 16.2-34.5 0-3.5-15.1-30.4-24.4-43.5-5.8-8.1-13.9-16.9-19.8-21.6C114.4 83.9 81.6 70 76 70c-1.4 0-3.4 1-4.5 2.2z"/></svg>