<svg version="1" xmlns="http://www.w3.org/2000/svg" width="933.333" height="933.333" viewBox="0 0 700.000000 700.000000"><path d="M135.3 147.7c-20.9 24-38.5 50.1-46.9 69.6-1.9 4.3-3.4 8.3-3.4 8.8s8.2 5 18.3 9.9c19.4 9.6 22.1 11.7 31.9 24.6l4 5.3-2.2 8.8c-1.2 4.8-5.9 18.7-10.5 30.8-8.6 22.8-11.1 31.9-10 36.2 1.2 4.9 22.3 23.4 51.3 45 26.4 19.7 35.2 27.5 35.2 31.3 0 5.6-10.2 23.1-28.7 49.1l-10.4 14.7-12.6-5.4-12.5-5.4-10.9 8.1c-6 4.5-10.9 8.2-10.9 8.4 0 .7 12.4 27.3 16.9 36.2 9.2 18.5 17.4 30.3 20.8 30.3 2.4 0 22.3-7.1 32.6-11.6 34.9-15.4 60.6-24.8 70.7-26.1 4-.4 5-.1 9.1 3 2.5 1.9 11.3 11.8 19.6 21.9 13.5 16.4 26.8 30.8 29.2 31.6 1 .3 19.1-26.6 33.3-49.8 12.8-20.9 28.6-49.4 37.2-67 8.4-17.3 8.3-16.7 6.7-52-.6-13.3-.9-24.5-.7-24.8.3-.2 10.6.5 22.8 1.7 24.9 2.3 41.8 3.7 58.5 4.7l11.2.6.6 4.2c.3 2.2 2.3 21.1 4.5 42 2.2 20.8 4.1 38 4.3 38.2.6.6 76.3 34.4 77.1 34.4.2 0 6.9-9.8 14.9-21.7 8.1-12 20-29.2 26.5-38.3l11.9-16.5-16.1-8.3c-8.9-4.6-21-11.1-27-14.5l-10.8-6.1-7.4-12.6c-4.1-6.9-21.3-36.7-38.2-66.3-16.8-29.5-30.9-53.7-31.3-53.7-.8 0-2.4 3.6-6.1 13.5-3.3 8.7-3.3 10.2-1.2 41.6.6 8.3.5 9.7-1 10.2-.9.4-7.5 1.1-14.7 1.7-20.2 1.8-52.8-1-79.3-6.8-9.2-2-8.6-.9-11.1-18.5-1.9-13.7-1.9-21.3.1-29.1 1.9-7.4 9.5-23.8 16.3-34.9 8.5-13.8 6.5-12.6 23.6-13.7 20.7-1.4 39.9-3.6 47-5.5 7.8-2.1 26.9-12.7 40.4-22.5l4.4-3.2-.7-9.7c-1.5-20.7-4.4-35.1-7.1-35.1-.7 0-8 3.7-16.2 8.1-17.1 9.5-29.2 15.2-36.5 17.4-17.5 5.2-81.4-2.3-127-14.9l-8.7-2.4-12.3 12.7c-21.4 21.8-38.3 42.5-53.8 65.7-11.1 16.6-15.5 25.2-16.9 32.9-1.1 6-2.9 31.6-3.4 47.5l-.2 8.5-4-.2c-4.2-.2-14.9-4.2-29.7-11.2-10.7-5.1-10.3-3.7-10.3-33.1v-21.5l3.3-8.5c1.8-4.7 7.9-17.9 13.4-29.4l10.2-20.9-4.7-9.1c-6.9-13.6-16-27.1-23.5-34.9-5.5-5.7-8.4-7.8-15.7-11.2-10.3-4.9-22.8-9.5-25.5-9.5-1 0-4.4 3-7.7 6.7z"/></svg>